<?xml version="1.0" encoding="utf-8"?>
<svg width="157px" height="51px" viewBox="0 0 157 51" version="1.1" xmlns:xlink="http://www.w3.org/1999/xlink" xmlns="http://www.w3.org/2000/svg">
  <desc>Created with Lunacy</desc>
  <g id="Group">
    <g id="Search-icon" transform="matrix(0.9659258 0.258819 -0.258819 0.9659258 10.61159 0)">
      <path d="M0 0L41 0L41 41L0 41L0 0Z" transform="translate(0 -1.525879E-05)" id="Background" fill="none" stroke="none" />
      <path d="M0 11.9583C0 5.37416 5.37416 0 11.9583 0C18.5425 0 23.9167 5.37416 23.9167 11.9583C23.9167 14.9445 22.8029 17.6727 20.9805 19.7726L21.7078 20.5L23.9167 20.5L34.1667 30.75L30.75 34.1667L20.5 23.9167L20.5 21.7078L19.7726 20.9805C17.6727 22.8029 14.9445 23.9167 11.9583 23.9167C5.37416 23.9167 0 18.5425 0 11.9583ZM20.5 11.9583C20.5 7.22067 16.696 3.41667 11.9583 3.41667C7.22067 3.41667 3.41667 7.22067 3.41667 11.9583C3.41667 16.696 7.22067 20.5 11.9583 20.5C16.696 20.5 20.5 16.696 20.5 11.9583Z" transform="translate(3.416672 3.416656)" id="Shape" fill="#7F6AC7" fill-rule="evenodd" stroke="none" />
    </g>
    <g id="VINICIUS-CONSULTAS" transform="translate(41.60727 4.607269)">
      <g id="VINICIUS" fill="#565363">
        <path d="M45.468 16.9818Q43.074 16.9818 41.553 15.9918Q40.032 15.0018 40.032 13.0218Q40.032 12.6438 40.122 12.1038Q40.338 10.8078 40.806 8.89976Q42.03 4.02176 47.502 4.02176Q48.906 4.02176 50.175 4.42676Q51.444 4.83176 52.245 5.68676Q53.046 6.54176 53.046 7.80176Q53.046 8.14376 52.956 8.62976Q52.92 8.79176 52.776 8.90876Q52.632 9.02576 52.47 9.02576L48.798 9.02576Q48.51 9.02576 48.402 8.91776Q48.294 8.80976 48.24 8.50376Q48.168 7.96376 47.889 7.74776Q47.61 7.53176 47.106 7.53176Q46.476 7.53176 46.071 7.86476Q45.666 8.19776 45.468 8.98976Q45.09 10.4838 44.82 12.0138Q44.766 12.2838 44.766 12.4998Q44.766 13.0218 45.045 13.2468Q45.324 13.4718 45.846 13.4718Q46.89 13.4718 47.394 12.4998Q47.556 12.1938 47.709 12.0858Q47.862 11.9778 48.168 11.9778L51.84 11.9778Q52.002 11.9778 52.101 12.0948Q52.2 12.2118 52.164 12.3738Q51.624 14.7138 49.833 15.8478Q48.042 16.9818 45.468 16.9818ZM75.168 16.5318Q76.41 16.9818 78.174 16.9818Q80.982 16.9818 82.629 15.9738Q84.276 14.9658 84.69 12.9858Q84.798 12.4638 84.798 12.0138Q84.798 10.6638 83.79 9.87176Q82.782 9.07976 80.568 8.80976Q79.434 8.66576 79.056 8.48576Q78.678 8.30576 78.732 8.03576Q78.858 7.53176 79.704 7.53176Q80.262 7.53176 80.586 7.85576Q80.73 8.01776 80.865 8.08076Q81 8.14376 81.252 8.14376L84.852 8.14376Q84.996 8.14376 85.14 8.02676Q85.284 7.90976 85.302 7.74776Q85.32 7.65776 85.32 7.47776Q85.32 6.70376 84.636 5.89376Q83.952 5.08376 82.746 4.55276Q81.54 4.02176 80.082 4.02176Q77.634 4.02176 76.068 5.04776Q74.502 6.07376 74.124 7.90976Q74.016 8.39576 74.016 8.80976Q74.016 10.1778 75.033 11.0238Q76.05 11.8698 77.886 12.1218Q79.11 12.2838 79.578 12.4458Q80.046 12.6078 80.046 12.8778Q80.046 13.1658 79.641 13.3188Q79.236 13.4718 78.57 13.4718Q77.778 13.4718 77.328 13.0578Q77.13 12.8778 76.995 12.8148Q76.86 12.7518 76.608 12.7518L73.188 12.7518Q73.026 12.7518 72.882 12.8688Q72.738 12.9858 72.72 13.1478Q72.666 13.3818 72.666 13.6518Q72.666 14.5698 73.296 15.3258Q73.926 16.0818 75.168 16.5318ZM2.817 16.6218Q2.988 16.8018 3.33 16.8018L7.488 16.8018Q7.812 16.8018 8.055 16.6218Q8.298 16.4418 8.424 16.2078L14.238 4.72376Q14.292 4.61576 14.292 4.50776Q14.292 4.38176 14.211 4.29176Q14.13 4.20176 13.968 4.20176L10.44 4.20176Q10.098 4.20176 9.855 4.38176Q9.612 4.56176 9.504 4.79576L6.372 11.4918L6.084 4.79576Q6.066 4.56176 5.904 4.38176Q5.742 4.20176 5.4 4.20176L2.178 4.20176Q1.962 4.20176 1.818 4.34576Q1.674 4.48976 1.692 4.72376L2.646 16.2078Q2.646 16.4418 2.817 16.6218ZM13.095 16.6578C13.173 16.7538 13.278 16.8018 13.41 16.8018L17.082 16.8018C17.214 16.8018 17.337 16.7538 17.451 16.6578Q17.622 16.5138 17.658 16.3158L20.142 4.68776Q20.178 4.48976 20.061 4.34576Q19.944 4.20176 19.746 4.20176L16.074 4.20176Q15.876 4.20176 15.705 4.34576Q15.534 4.48976 15.498 4.68776L13.014 16.3158Q12.978 16.5138 13.095 16.6578ZM20.016 16.8018Q19.818 16.8018 19.701 16.6578Q19.584 16.5138 19.62 16.3158L22.104 4.68776Q22.14 4.48976 22.311 4.34576Q22.482 4.20176 22.68 4.20176L25.524 4.20176Q26.046 4.20176 26.172 4.61576L28.17 9.60176L29.214 4.68776Q29.25 4.48976 29.421 4.34576Q29.592 4.20176 29.79 4.20176L33.048 4.20176Q33.246 4.20176 33.363 4.34576Q33.48 4.48976 33.444 4.68776L30.96 16.3158Q30.924 16.5138 30.753 16.6578C30.639 16.7538 30.516 16.8018 30.384 16.8018L27.54 16.8018C27.336 16.8018 27.189 16.7598 27.099 16.6758Q26.964 16.5498 26.874 16.3878L24.822 11.7978L23.85 16.3158Q23.814 16.5138 23.643 16.6578C23.529 16.7538 23.406 16.8018 23.274 16.8018L20.016 16.8018ZM33.003 16.6578Q33.12 16.8018 33.318 16.8018L36.99 16.8018C37.122 16.8018 37.245 16.7538 37.359 16.6578Q37.53 16.5138 37.566 16.3158L40.05 4.68776Q40.086 4.48976 39.969 4.34576Q39.852 4.20176 39.654 4.20176L35.982 4.20176Q35.784 4.20176 35.613 4.34576Q35.442 4.48976 35.406 4.68776L32.922 16.3158Q32.886 16.5138 33.003 16.6578ZM52.767 16.6578Q52.884 16.8018 53.082 16.8018L56.754 16.8018C56.886 16.8018 57.009 16.7538 57.123 16.6578Q57.294 16.5138 57.33 16.3158L59.814 4.68776Q59.85 4.48976 59.733 4.34576Q59.616 4.20176 59.418 4.20176L55.746 4.20176Q55.548 4.20176 55.377 4.34576Q55.206 4.48976 55.17 4.68776L52.686 16.3158Q52.65 16.5138 52.767 16.6578ZM65.232 16.9818Q63.792 16.9818 62.595 16.5588Q61.398 16.1358 60.678 15.2628Q59.958 14.3898 59.958 13.1118Q59.958 12.5718 60.084 12.0498L61.65 4.68776Q61.686 4.48976 61.857 4.34576Q62.028 4.20176 62.226 4.20176L65.754 4.20176Q65.952 4.20176 66.069 4.34576Q66.186 4.48976 66.15 4.68776L64.584 11.9778Q64.53 12.2118 64.53 12.4098Q64.53 13.3638 65.628 13.3638Q66.294 13.3638 66.699 13.0128Q67.104 12.6618 67.248 11.9778L68.814 4.68776Q68.85 4.48976 69.021 4.34576Q69.192 4.20176 69.39 4.20176L72.918 4.20176Q73.116 4.20176 73.233 4.34576Q73.35 4.48976 73.314 4.68776L71.748 12.0498Q71.19 14.6058 69.624 15.7938Q68.058 16.9818 65.232 16.9818Z" />
      </g>
      <g id="CONSULTAS" fill="#7F6AC7">
        <path d="M5.886 37.98Q3.492 37.98 1.971 36.99Q0.45 36 0.45 34.02Q0.45 33.642 0.54 33.102Q0.756 31.806 1.224 29.898Q2.448 25.02 7.92 25.02Q9.324 25.02 10.593 25.425Q11.862 25.83 12.663 26.685Q13.464 27.54 13.464 28.8Q13.464 29.142 13.374 29.628Q13.338 29.79 13.194 29.907Q13.05 30.024 12.888 30.024L9.216 30.024Q8.928 30.024 8.82 29.916Q8.712 29.808 8.658 29.502Q8.586 28.962 8.307 28.746Q8.028 28.53 7.524 28.53Q6.894 28.53 6.489 28.863Q6.084 29.196 5.886 29.988Q5.508 31.482 5.238 33.012Q5.184 33.282 5.184 33.498Q5.184 34.02 5.463 34.245Q5.742 34.47 6.264 34.47Q7.308 34.47 7.812 33.498Q7.974 33.192 8.127 33.084Q8.28 32.976 8.586 32.976L12.258 32.976Q12.42 32.976 12.519 33.093Q12.618 33.21 12.582 33.372Q12.042 35.712 10.251 36.846Q8.46 37.98 5.886 37.98ZM19.026 37.98Q17.532 37.98 16.308 37.512Q15.084 37.044 14.355 36.126Q13.626 35.208 13.626 33.912Q13.626 33.48 13.698 33.12Q13.932 31.698 14.364 29.952Q14.976 27.522 16.596 26.271Q18.216 25.02 21.06 25.02Q22.536 25.02 23.769 25.515Q25.002 26.01 25.731 26.946Q26.46 27.882 26.46 29.16Q26.46 29.592 26.388 29.952Q26.136 31.428 25.722 33.12Q25.092 35.586 23.49 36.783Q21.888 37.98 19.026 37.98ZM45.234 37.98Q43.47 37.98 42.228 37.53Q40.986 37.08 40.356 36.324Q39.726 35.568 39.726 34.65Q39.726 34.38 39.78 34.146Q39.798 33.984 39.942 33.867Q40.086 33.75 40.248 33.75L43.668 33.75Q43.92 33.75 44.055 33.813Q44.19 33.876 44.388 34.056Q44.838 34.47 45.63 34.47Q46.296 34.47 46.701 34.317Q47.106 34.164 47.106 33.876Q47.106 33.606 46.638 33.444Q46.17 33.282 44.946 33.12Q43.11 32.868 42.093 32.022Q41.076 31.176 41.076 29.808Q41.076 29.394 41.184 28.908Q41.562 27.072 43.128 26.046Q44.694 25.02 47.142 25.02Q48.6 25.02 49.806 25.551Q51.012 26.082 51.696 26.892Q52.38 27.702 52.38 28.476Q52.38 28.656 52.362 28.746Q52.344 28.908 52.2 29.025Q52.056 29.142 51.912 29.142L48.312 29.142Q48.06 29.142 47.925 29.079Q47.79 29.016 47.646 28.854Q47.322 28.53 46.764 28.53Q45.918 28.53 45.792 29.034Q45.738 29.304 46.116 29.484Q46.494 29.664 47.628 29.808Q49.842 30.078 50.85 30.87Q51.858 31.662 51.858 33.012Q51.858 33.462 51.75 33.984Q51.336 35.964 49.689 36.972Q48.042 37.98 45.234 37.98ZM105.228 37.53Q106.47 37.98 108.234 37.98Q111.042 37.98 112.689 36.972Q114.336 35.964 114.75 33.984Q114.858 33.462 114.858 33.012Q114.858 31.662 113.85 30.87Q112.842 30.078 110.628 29.808Q109.494 29.664 109.116 29.484Q108.738 29.304 108.792 29.034Q108.918 28.53 109.764 28.53Q110.322 28.53 110.646 28.854Q110.79 29.016 110.925 29.079Q111.06 29.142 111.312 29.142L114.912 29.142Q115.056 29.142 115.2 29.025Q115.344 28.908 115.362 28.746Q115.38 28.656 115.38 28.476Q115.38 27.702 114.696 26.892Q114.012 26.082 112.806 25.551Q111.6 25.02 110.142 25.02Q107.694 25.02 106.128 26.046Q104.562 27.072 104.184 28.908Q104.076 29.394 104.076 29.808Q104.076 31.176 105.093 32.022Q106.11 32.868 107.946 33.12Q109.17 33.282 109.638 33.444Q110.106 33.606 110.106 33.876Q110.106 34.164 109.701 34.317Q109.296 34.47 108.63 34.47Q107.838 34.47 107.388 34.056Q107.19 33.876 107.055 33.813Q106.92 33.75 106.668 33.75L103.248 33.75Q103.086 33.75 102.942 33.867Q102.798 33.984 102.78 34.146Q102.726 34.38 102.726 34.65Q102.726 35.568 103.356 36.324Q103.986 37.08 105.228 37.53ZM26.541 37.656Q26.658 37.8 26.856 37.8L30.114 37.8C30.246 37.8 30.369 37.752 30.483 37.656Q30.654 37.512 30.69 37.314L31.662 32.796L33.714 37.386Q33.804 37.548 33.939 37.674C34.029 37.758 34.176 37.8 34.38 37.8L37.224 37.8Q37.422 37.8 37.593 37.656Q37.764 37.512 37.8 37.314L40.284 25.686Q40.32 25.488 40.203 25.344Q40.086 25.2 39.888 25.2L36.63 25.2Q36.432 25.2 36.261 25.344Q36.09 25.488 36.054 25.686L35.01 30.6L33.012 25.614Q32.886 25.2 32.364 25.2L29.52 25.2Q29.322 25.2 29.151 25.344Q28.98 25.488 28.944 25.686L26.46 37.314Q26.424 37.512 26.541 37.656ZM55.629 37.557Q56.826 37.98 58.266 37.98Q61.092 37.98 62.658 36.792Q64.224 35.604 64.782 33.048L66.348 25.686Q66.384 25.488 66.267 25.344Q66.15 25.2 65.952 25.2L62.424 25.2Q62.226 25.2 62.055 25.344Q61.884 25.488 61.848 25.686L60.282 32.976Q60.138 33.66 59.733 34.011Q59.328 34.362 58.662 34.362Q57.564 34.362 57.564 33.408Q57.564 33.21 57.618 32.976L59.184 25.686Q59.22 25.488 59.103 25.344Q58.986 25.2 58.788 25.2L55.26 25.2Q55.062 25.2 54.891 25.344Q54.72 25.488 54.684 25.686L53.118 33.048Q52.992 33.57 52.992 34.11Q52.992 35.388 53.712 36.261Q54.432 37.134 55.629 37.557ZM66.132 37.8C66 37.8 65.895 37.752 65.817 37.656Q65.7 37.512 65.736 37.314L68.22 25.686Q68.256 25.488 68.427 25.344Q68.598 25.2 68.796 25.2L72.396 25.2Q72.594 25.2 72.711 25.344Q72.828 25.488 72.792 25.686L70.992 34.11L75.978 34.11Q76.176 34.11 76.293 34.254Q76.41 34.398 76.356 34.596L75.78 37.314Q75.744 37.512 75.573 37.656C75.459 37.752 75.336 37.8 75.204 37.8L66.132 37.8ZM79.821 37.656C79.899 37.752 80.004 37.8 80.136 37.8L83.736 37.8C83.868 37.8 83.991 37.752 84.105 37.656Q84.276 37.512 84.312 37.314L86.076 29.07L89.064 29.07Q89.262 29.07 89.433 28.926Q89.604 28.782 89.64 28.584L90.27 25.686Q90.306 25.488 90.189 25.344Q90.072 25.2 89.874 25.2L79.326 25.2Q79.128 25.2 78.957 25.344Q78.786 25.488 78.75 25.686L78.12 28.584Q78.084 28.782 78.201 28.926Q78.318 29.07 78.516 29.07L81.504 29.07L79.74 37.314Q79.704 37.512 79.821 37.656ZM88.398 37.8C88.302 37.8 88.224 37.77 88.164 37.71Q88.074 37.62 88.074 37.476Q88.074 37.386 88.128 37.278L94.572 25.794Q94.716 25.56 94.95 25.38Q95.184 25.2 95.508 25.2L99.504 25.2Q99.828 25.2 99.99 25.371Q100.152 25.542 100.188 25.794L101.772 37.278Q101.79 37.512 101.646 37.656C101.55 37.752 101.43 37.8 101.286 37.8L98.046 37.8C97.662 37.8 97.458 37.65 97.434 37.35L97.254 36.162L93.384 36.162L92.7 37.35Q92.574 37.548 92.394 37.674C92.274 37.758 92.112 37.8 91.908 37.8L88.398 37.8ZM19.422 34.47Q20.7 34.47 21.06 33.012Q21.438 31.464 21.708 29.988Q21.744 29.826 21.744 29.574Q21.744 29.052 21.465 28.791Q21.186 28.53 20.682 28.53Q20.088 28.53 19.656 28.89Q19.224 29.25 19.044 29.988Q18.666 31.482 18.396 33.012Q18.36 33.174 18.36 33.444Q18.36 34.47 19.422 34.47ZM95.04 32.652L97.074 32.652L96.768 29.304L95.04 32.652Z" />
      </g>
    </g>
  </g>
</svg>